<svg width="385" height="298" viewBox="0 0 385 298" fill="none" xmlns="http://www.w3.org/2000/svg">
<g filter="url(#filter0_b_33_8)">
<path d="M33.2973 232.276C67.2973 269.276 131.251 288.276 160.797 252.276C132.589 264.081 120.91 253.795 107.798 203.776C87.7977 102.276 126 64 75.7973 69.2765C10.2976 81.2765 -22.2023 168.776 33.2973 232.276Z" fill="#FDE95E"/>
<path d="M160.797 252.276C181.44 227.124 191.957 206.044 208.797 155.776C203.417 222.417 212.798 254.775 249.514 277.775C211.977 245.866 212.976 168.652 243.798 121.776C329.298 -12.7245 200.656 -32.2246 151.298 74.7756C130.254 120.395 120.682 148.583 107.798 203.776C120.91 253.795 132.589 264.081 160.797 252.276Z" fill="#FFC100"/>
<path d="M249.514 277.775C274.437 298.962 316.348 300.175 377.798 259.275C362.798 226.775 308.798 304.275 249.514 277.775Z" fill="#FDE95E"/>
<path d="M160.797 252.276C181.44 227.124 191.957 206.044 208.797 155.776C203.417 222.417 212.798 254.775 249.514 277.775M160.797 252.276C131.251 288.276 67.2973 269.276 33.2973 232.276C-22.2023 168.776 10.2976 81.2765 75.7973 69.2765C126 64 87.7977 102.276 107.798 203.776M160.797 252.276C132.589 264.081 120.91 253.795 107.798 203.776M107.798 203.776C120.682 148.583 130.254 120.395 151.298 74.7756C200.656 -32.2246 329.298 -12.7245 243.798 121.776C212.976 168.652 211.977 245.866 249.514 277.775M249.514 277.775C274.437 298.962 316.348 300.175 377.798 259.275C362.798 226.775 308.798 304.275 249.514 277.775Z" stroke="#FFB200" stroke-width="10"/>
</g>
<defs>
<filter id="filter0_b_33_8" x="-3.96436" y="-3.00269" width="392.095" height="304.28" filterUnits="userSpaceOnUse" color-interpolation-filters="sRGB">
<feFlood flood-opacity="0" result="BackgroundImageFix"/>
<feGaussianBlur in="BackgroundImageFix" stdDeviation="2"/>
<feComposite in2="SourceAlpha" operator="in" result="effect1_backgroundBlur_33_8"/>
<feBlend mode="normal" in="SourceGraphic" in2="effect1_backgroundBlur_33_8" result="shape"/>
</filter>
</defs>
</svg>
