<svg width="375" height="288" viewBox="0 0 375 288" fill="none" xmlns="http://www.w3.org/2000/svg">
<g filter="url(#filter0_b_30_38)">
<path d="M29.2973 227.276C63.2973 264.276 127.251 283.276 156.797 247.276C128.589 259.081 116.91 248.795 103.798 198.776C83.7977 97.2755 122 59 71.7973 64.2765C6.29765 76.2765 -26.2023 163.776 29.2973 227.276Z" fill="#FDE95E"/>
<path d="M245.514 272.775C270.437 293.962 312.348 295.175 373.798 254.275C358.798 221.775 304.798 299.275 245.514 272.775Z" fill="#FDE95E" fill-opacity="0.7"/>
<path d="M156.797 247.276C177.44 222.124 187.957 201.044 204.797 150.776C199.417 217.417 208.798 249.775 245.514 272.775C207.977 240.866 208.976 163.652 239.798 116.776C325.298 -17.7245 196.656 -37.2246 147.298 69.7756C126.254 115.395 116.682 143.583 103.798 198.776C116.91 248.795 128.589 259.081 156.797 247.276Z" fill="#FFC100"/>
<path d="M156.797 247.276C177.44 222.124 187.957 201.044 204.797 150.776C199.417 217.417 208.798 249.775 245.514 272.775M156.797 247.276C127.251 283.276 63.2973 264.276 29.2973 227.276C-26.2023 163.776 6.29765 76.2765 71.7973 64.2765C122 59 83.7977 97.2755 103.798 198.776M156.797 247.276C128.589 259.081 116.91 248.795 103.798 198.776M103.798 198.776C116.682 143.583 126.254 115.395 147.298 69.7756C196.656 -37.2246 325.298 -17.7245 239.798 116.776C208.976 163.652 207.977 240.866 245.514 272.775M245.514 272.775C270.437 293.962 312.348 295.175 373.798 254.275C358.798 221.775 304.798 299.275 245.514 272.775Z" stroke="#FDE95E"/>
</g>
<defs>
<filter id="filter0_b_30_38" x="-3.49646" y="-3.50024" width="381.927" height="295.268" filterUnits="userSpaceOnUse" color-interpolation-filters="sRGB">
<feFlood flood-opacity="0" result="BackgroundImageFix"/>
<feGaussianBlur in="BackgroundImageFix" stdDeviation="2"/>
<feComposite in2="SourceAlpha" operator="in" result="effect1_backgroundBlur_30_38"/>
<feBlend mode="normal" in="SourceGraphic" in2="effect1_backgroundBlur_30_38" result="shape"/>
</filter>
</defs>
</svg>
